<svg id="visual" viewBox="0 0 900 450" width="900" height="450" xmlns="http://www.w3.org/2000/svg" xmlns:xlink="http://www.w3.org/1999/xlink" version="1.1"><rect x="0" y="0" width="900" height="450" fill="#4a4a4a"></rect><g transform="translate(454.9516456496806 175.65712421844455)"><path d="M73.6 -79.1C100.5 -65.2 131 -46.8 140 -21C149 4.8 136.4 38.2 122.3 78.2C108.2 118.1 92.6 164.8 60.4 184.7C28.2 204.5 -20.6 197.6 -63.5 179.7C-106.3 161.8 -143.2 132.9 -151.2 97.7C-159.2 62.4 -138.2 20.9 -114.2 -3.6C-90.2 -28.1 -63.2 -35.6 -43.6 -50.8C-24.1 -66.1 -12.1 -89 5.7 -95.8C23.4 -102.5 46.7 -93 73.6 -79.1" fill="#33b3a6"></path></g></svg>