<svg id="visual" viewBox="0 0 900 900" width="900" height="900" xmlns="http://www.w3.org/2000/svg" xmlns:xlink="http://www.w3.org/1999/xlink" version="1.1"><rect x="0" y="0" width="900" height="900" fill="#4a4a4a"></rect><g transform="translate(397.2533837512792 377.94606192731817)"><path d="M296.9 -310.5C387.7 -277.7 466.1 -186.8 461.6 -98.3C457.2 -9.7 369.7 76.7 307.4 170.8C245.1 265 207.9 366.9 128.8 427.9C49.6 488.8 -71.4 508.7 -168.7 470.3C-266 431.9 -339.5 335.2 -353.6 239C-367.7 142.7 -322.4 46.9 -310.2 -60.3C-298 -167.6 -319 -286.4 -272.9 -327.1C-226.7 -367.8 -113.3 -330.4 -5.1 -324.3C103.1 -318.2 206.1 -343.3 296.9 -310.5" fill="#33b3a6"></path></g></svg>