<svg id="visual" viewBox="0 0 540 960" width="540" height="960" xmlns="http://www.w3.org/2000/svg" xmlns:xlink="http://www.w3.org/1999/xlink" version="1.1"><rect x="0" y="0" width="540" height="960" fill="#4a4a4a"></rect><path d="M109 0L108.3 11.5C107.7 23 106.3 46 107.5 68.8C108.7 91.7 112.3 114.3 109.2 137.2C106 160 96 183 98.5 205.8C101 228.7 116 251.3 123.3 274.2C130.7 297 130.3 320 125.7 342.8C121 365.7 112 388.3 106 411.2C100 434 97 457 92.8 480C88.7 503 83.3 526 81.5 548.8C79.7 571.7 81.3 594.3 91.2 617.2C101 640 119 663 125.8 685.8C132.7 708.7 128.3 731.3 122.5 754.2C116.7 777 109.3 800 101.8 822.8C94.3 845.7 86.7 868.3 86.2 891.2C85.7 914 92.3 937 95.7 948.5L99 960L0 960L0 948.5C0 937 0 914 0 891.2C0 868.3 0 845.7 0 822.8C0 800 0 777 0 754.2C0 731.3 0 708.7 0 685.8C0 663 0 640 0 617.2C0 594.3 0 571.7 0 548.8C0 526 0 503 0 480C0 457 0 434 0 411.2C0 388.3 0 365.7 0 342.8C0 320 0 297 0 274.2C0 251.3 0 228.7 0 205.8C0 183 0 160 0 137.2C0 114.3 0 91.7 0 68.8C0 46 0 23 0 11.5L0 0Z" fill="#33b3a6"></path><path d="M93 0L90.8 11.5C88.7 23 84.3 46 86.3 68.8C88.3 91.7 96.7 114.3 100.2 137.2C103.7 160 102.3 183 96.3 205.8C90.3 228.7 79.7 251.3 82.3 274.2C85 297 101 320 103.7 342.8C106.3 365.7 95.7 388.3 90 411.2C84.3 434 83.7 457 87.7 480C91.7 503 100.3 526 100.5 548.8C100.7 571.7 92.3 594.3 86.7 617.2C81 640 78 663 78.7 685.8C79.3 708.7 83.7 731.3 87.2 754.2C90.7 777 93.3 800 94.3 822.8C95.3 845.7 94.7 868.3 92.2 891.2C89.7 914 85.3 937 83.2 948.5L81 960L0 960L0 948.5C0 937 0 914 0 891.2C0 868.3 0 845.7 0 822.8C0 800 0 777 0 754.2C0 731.3 0 708.7 0 685.8C0 663 0 640 0 617.2C0 594.3 0 571.7 0 548.8C0 526 0 503 0 480C0 457 0 434 0 411.2C0 388.3 0 365.7 0 342.8C0 320 0 297 0 274.2C0 251.3 0 228.7 0 205.8C0 183 0 160 0 137.2C0 114.3 0 91.7 0 68.8C0 46 0 23 0 11.5L0 0Z" fill="#378c81"></path><path d="M72 0L70.5 11.5C69 23 66 46 63.3 68.8C60.7 91.7 58.3 114.3 62.3 137.2C66.3 160 76.7 183 78.5 205.8C80.3 228.7 73.7 251.3 67 274.2C60.3 297 53.7 320 55.2 342.8C56.7 365.7 66.3 388.3 66.2 411.2C66 434 56 457 51.5 480C47 503 48 526 52.7 548.8C57.3 571.7 65.7 594.3 72.7 617.2C79.7 640 85.3 663 87.5 685.8C89.7 708.7 88.3 731.3 85.2 754.2C82 777 77 800 72.5 822.8C68 845.7 64 868.3 59.8 891.2C55.7 914 51.3 937 49.2 948.5L47 960L0 960L0 948.5C0 937 0 914 0 891.2C0 868.3 0 845.7 0 822.8C0 800 0 777 0 754.2C0 731.3 0 708.7 0 685.8C0 663 0 640 0 617.2C0 594.3 0 571.7 0 548.8C0 526 0 503 0 480C0 457 0 434 0 411.2C0 388.3 0 365.7 0 342.8C0 320 0 297 0 274.2C0 251.3 0 228.7 0 205.8C0 183 0 160 0 137.2C0 114.3 0 91.7 0 68.8C0 46 0 23 0 11.5L0 0Z" fill="#34665f"></path><path d="M34 0L38 11.5C42 23 50 46 52.3 68.8C54.7 91.7 51.3 114.3 48.7 137.2C46 160 44 183 42.3 205.8C40.7 228.7 39.3 251.3 37.2 274.2C35 297 32 320 32.8 342.8C33.7 365.7 38.3 388.3 41.8 411.2C45.3 434 47.7 457 46.2 480C44.7 503 39.3 526 37.5 548.8C35.7 571.7 37.3 594.3 38.8 617.2C40.3 640 41.7 663 41.8 685.8C42 708.7 41 731.3 39.5 754.2C38 777 36 800 34 822.8C32 845.7 30 868.3 31.8 891.2C33.7 914 39.3 937 42.2 948.5L45 960L0 960L0 948.5C0 937 0 914 0 891.2C0 868.3 0 845.7 0 822.8C0 800 0 777 0 754.2C0 731.3 0 708.7 0 685.8C0 663 0 640 0 617.2C0 594.3 0 571.7 0 548.8C0 526 0 503 0 480C0 457 0 434 0 411.2C0 388.3 0 365.7 0 342.8C0 320 0 297 0 274.2C0 251.3 0 228.7 0 205.8C0 183 0 160 0 137.2C0 114.3 0 91.7 0 68.8C0 46 0 23 0 11.5L0 0Z" fill="#2c423f"></path><path d="M24 0L27.2 11.5C30.3 23 36.7 46 34.7 68.8C32.7 91.7 22.3 114.3 21.5 137.2C20.7 160 29.3 183 33.5 205.8C37.7 228.7 37.3 251.3 37.7 274.2C38 297 39 320 39 342.8C39 365.7 38 388.3 34.7 411.2C31.3 434 25.7 457 26.2 480C26.7 503 33.3 526 36.3 548.8C39.3 571.7 38.7 594.3 38 617.2C37.3 640 36.7 663 34.8 685.8C33 708.7 30 731.3 26.3 754.2C22.7 777 18.3 800 16.7 822.8C15 845.7 16 868.3 19.7 891.2C23.3 914 29.7 937 32.8 948.5L36 960L0 960L0 948.5C0 937 0 914 0 891.2C0 868.3 0 845.7 0 822.8C0 800 0 777 0 754.2C0 731.3 0 708.7 0 685.8C0 663 0 640 0 617.2C0 594.3 0 571.7 0 548.8C0 526 0 503 0 480C0 457 0 434 0 411.2C0 388.3 0 365.7 0 342.8C0 320 0 297 0 274.2C0 251.3 0 228.7 0 205.8C0 183 0 160 0 137.2C0 114.3 0 91.7 0 68.8C0 46 0 23 0 11.5L0 0Z" fill="#212121"></path></svg>