<svg id="visual" viewBox="0 0 900 900" width="900" height="900" xmlns="http://www.w3.org/2000/svg" xmlns:xlink="http://www.w3.org/1999/xlink" version="1.1"><rect x="0" y="0" width="900" height="900" fill="#4a4a4a"></rect><g transform="translate(383.4740684703221 454.3962080754184)"><path d="M327.9 -379.4C414.7 -317.9 467.8 -204.9 463.4 -100.8C459 3.3 397.1 98.4 337.6 188.7C278 279 220.9 364.6 138.1 406.4C55.3 448.2 -53.2 446.4 -121.1 394.8C-189 343.2 -216.3 241.9 -247.8 157.5C-279.2 73.1 -314.9 5.7 -326.6 -80.1C-338.3 -165.8 -326 -269.8 -267.6 -336.4C-209.1 -402.9 -104.6 -431.9 8 -441.5C120.5 -451 241 -440.9 327.9 -379.4" fill="#33b3a6"></path></g></svg>