<svg id="visual" viewBox="0 0 450 900" width="450" height="900" xmlns="http://www.w3.org/2000/svg" xmlns:xlink="http://www.w3.org/1999/xlink" version="1.1">
    <rect x="0" y="0" width="450" height="900" fill="#4a4a4a"></rect>
    <path d="M128 0L137 8.3C146 16.7 164 33.3 173.5 50C183 66.7 184 83.3 181 100C178 116.7 171 133.3 164.5 150C158 166.7 152 183.3 155.3 200C158.7 216.7 171.3 233.3 168.7 250C166 266.7 148 283.3 148.5 300C149 316.7 168 333.3 174.3 350C180.7 366.7 174.3 383.3 162.2 400C150 416.7 132 433.3 128.3 450C124.7 466.7 135.3 483.3 142.7 500C150 516.7 154 533.3 158.2 550C162.3 566.7 166.7 583.3 171.2 600C175.7 616.7 180.3 633.3 177.7 650C175 666.7 165 683.3 154.2 700C143.3 716.7 131.7 733.3 131.7 750C131.7 766.7 143.3 783.3 149 800C154.7 816.7 154.3 833.3 151.3 850C148.3 866.7 142.7 883.3 139.8 891.7L137 900L0 900L0 891.7C0 883.3 0 866.7 0 850C0 833.3 0 816.7 0 800C0 783.3 0 766.7 0 750C0 733.3 0 716.7 0 700C0 683.3 0 666.7 0 650C0 633.3 0 616.7 0 600C0 583.3 0 566.7 0 550C0 533.3 0 516.7 0 500C0 483.3 0 466.7 0 450C0 433.3 0 416.7 0 400C0 383.3 0 366.7 0 350C0 333.3 0 316.7 0 300C0 283.3 0 266.7 0 250C0 233.3 0 216.7 0 200C0 183.3 0 166.7 0 150C0 133.3 0 116.7 0 100C0 83.3 0 66.7 0 50C0 33.3 0 16.7 0 8.3L0 0Z" fill="#ffffff"></path>
    <path d="M113 0L117.5 8.3C122 16.7 131 33.3 134.7 50C138.3 66.7 136.7 83.3 129 100C121.3 116.7 107.7 133.3 105.2 150C102.7 166.7 111.3 183.3 116.7 200C122 216.7 124 233.3 127 250C130 266.7 134 283.3 134.8 300C135.7 316.7 133.3 333.3 135.8 350C138.3 366.7 145.7 383.3 140.7 400C135.7 416.7 118.3 433.3 116.2 450C114 466.7 127 483.3 129.7 500C132.3 516.7 124.7 533.3 117.5 550C110.3 566.7 103.7 583.3 105.3 600C107 616.7 117 633.3 118.3 650C119.7 666.7 112.3 683.3 107.3 700C102.3 716.7 99.7 733.3 100 750C100.3 766.7 103.7 783.3 104.3 800C105 816.7 103 833.3 111 850C119 866.7 137 883.3 146 891.7L155 900L0 900L0 891.7C0 883.3 0 866.7 0 850C0 833.3 0 816.7 0 800C0 783.3 0 766.7 0 750C0 733.3 0 716.7 0 700C0 683.3 0 666.7 0 650C0 633.3 0 616.7 0 600C0 583.3 0 566.7 0 550C0 533.3 0 516.7 0 500C0 483.3 0 466.7 0 450C0 433.3 0 416.7 0 400C0 383.3 0 366.7 0 350C0 333.3 0 316.7 0 300C0 283.3 0 266.7 0 250C0 233.3 0 216.7 0 200C0 183.3 0 166.7 0 150C0 133.3 0 116.7 0 100C0 83.3 0 66.7 0 50C0 33.3 0 16.7 0 8.3L0 0Z" fill="#c9c9c9"></path>
    <path d="M116 0L109 8.3C102 16.7 88 33.3 83.7 50C79.3 66.7 84.7 83.3 86.2 100C87.7 116.7 85.3 133.3 85 150C84.7 166.7 86.3 183.3 85.7 200C85 216.7 82 233.3 86.8 250C91.7 266.7 104.3 283.3 108.7 300C113 316.7 109 333.3 101.7 350C94.3 366.7 83.7 383.3 78 400C72.3 416.7 71.7 433.3 71 450C70.3 466.7 69.7 483.3 75.5 500C81.3 516.7 93.7 533.3 98.2 550C102.7 566.7 99.3 583.3 99.3 600C99.3 616.7 102.7 633.3 101.2 650C99.7 666.7 93.3 683.3 88.3 700C83.3 716.7 79.7 733.3 82.3 750C85 766.7 94 783.3 93.7 800C93.3 816.7 83.7 833.3 83.2 850C82.7 866.7 91.3 883.3 95.7 891.7L100 900L0 900L0 891.7C0 883.3 0 866.7 0 850C0 833.3 0 816.7 0 800C0 783.3 0 766.7 0 750C0 733.3 0 716.7 0 700C0 683.3 0 666.7 0 650C0 633.3 0 616.7 0 600C0 583.3 0 566.7 0 550C0 533.3 0 516.7 0 500C0 483.3 0 466.7 0 450C0 433.3 0 416.7 0 400C0 383.3 0 366.7 0 350C0 333.3 0 316.7 0 300C0 283.3 0 266.7 0 250C0 233.3 0 216.7 0 200C0 183.3 0 166.7 0 150C0 133.3 0 116.7 0 100C0 83.3 0 66.7 0 50C0 33.3 0 16.7 0 8.3L0 0Z" fill="#969696"></path>
    <path d="M68 0L69.2 8.3C70.3 16.7 72.7 33.3 72.3 50C72 66.7 69 83.3 64.8 100C60.7 116.7 55.3 133.3 52.5 150C49.7 166.7 49.3 183.3 48.3 200C47.3 216.7 45.7 233.3 51.2 250C56.7 266.7 69.3 283.3 77 300C84.7 316.7 87.3 333.3 81.7 350C76 366.7 62 383.3 61 400C60 416.7 72 433.3 73.3 450C74.7 466.7 65.3 483.3 64.3 500C63.3 516.7 70.7 533.3 72 550C73.3 566.7 68.7 583.3 68 600C67.3 616.7 70.7 633.3 70.2 650C69.7 666.7 65.3 683.3 61.7 700C58 716.7 55 733.3 55.5 750C56 766.7 60 783.3 65.2 800C70.3 816.7 76.7 833.3 79.8 850C83 866.7 83 883.3 83 891.7L83 900L0 900L0 891.7C0 883.3 0 866.7 0 850C0 833.3 0 816.7 0 800C0 783.3 0 766.7 0 750C0 733.3 0 716.7 0 700C0 683.3 0 666.7 0 650C0 633.3 0 616.7 0 600C0 583.3 0 566.7 0 550C0 533.3 0 516.7 0 500C0 483.3 0 466.7 0 450C0 433.3 0 416.7 0 400C0 383.3 0 366.7 0 350C0 333.3 0 316.7 0 300C0 283.3 0 266.7 0 250C0 233.3 0 216.7 0 200C0 183.3 0 166.7 0 150C0 133.3 0 116.7 0 100C0 83.3 0 66.7 0 50C0 33.3 0 16.7 0 8.3L0 0Z" fill="#666666"></path>
    <path d="M38 0L37.2 8.3C36.3 16.7 34.7 33.3 35.8 50C37 66.7 41 83.3 40.2 100C39.3 116.7 33.7 133.3 33.8 150C34 166.7 40 183.3 39.2 200C38.3 216.7 30.7 233.3 27.2 250C23.7 266.7 24.3 283.3 30 300C35.7 316.7 46.3 333.3 48.8 350C51.3 366.7 45.7 383.3 41.7 400C37.7 416.7 35.3 433.3 38 450C40.7 466.7 48.3 483.3 48.2 500C48 516.7 40 533.3 38.8 550C37.7 566.7 43.3 583.3 43.7 600C44 616.7 39 633.3 35 650C31 666.7 28 683.3 29.5 700C31 716.7 37 733.3 36.2 750C35.3 766.7 27.7 783.3 26.7 800C25.7 816.7 31.3 833.3 34.7 850C38 866.7 39 883.3 39.5 891.7L40 900L0 900L0 891.7C0 883.3 0 866.7 0 850C0 833.3 0 816.7 0 800C0 783.3 0 766.7 0 750C0 733.3 0 716.7 0 700C0 683.3 0 666.7 0 650C0 633.3 0 616.7 0 600C0 583.3 0 566.7 0 550C0 533.3 0 516.7 0 500C0 483.3 0 466.7 0 450C0 433.3 0 416.7 0 400C0 383.3 0 366.7 0 350C0 333.3 0 316.7 0 300C0 283.3 0 266.7 0 250C0 233.3 0 216.7 0 200C0 183.3 0 166.7 0 150C0 133.3 0 116.7 0 100C0 83.3 0 66.7 0 50C0 33.3 0 16.7 0 8.3L0 0Z" fill="#3a3a3a"></path>
</svg>